<?xml version="1.0" encoding="utf-8"?>
<!-- Generator: Adobe Illustrator 25.2.0, SVG Export Plug-In . SVG Version: 6.00 Build 0)  -->
<svg version="1.1" id="Layer_1" xmlns="http://www.w3.org/2000/svg" xmlns:xlink="http://www.w3.org/1999/xlink" x="0px" y="0px"
	 viewBox="0 0 612 792" style="enable-background:new 0 0 612 792;" xml:space="preserve">
<style type="text/css">
	.st0{display:none;fill:#EBEBEB;}
	.st1{fill:#EBEBEB;}
	.st2{fill:#00549B;}
	.st3{fill:none;stroke:#00549B;stroke-width:22.125;stroke-miterlimit:10;}
	.st4{fill:#FFFFFF;}
	.st5{fill:#FFFFFF;stroke:#00549B;stroke-width:9;stroke-linecap:round;stroke-linejoin:round;stroke-miterlimit:10;}
</style>
<g id="Layer_1_1_">
	<g>
		<path class="st0" d="M430.5,509.7h-236c-16.6,0-29.5-12.9-29.5-29.5v-236c0-16.6,12.9-29.5,29.5-29.5h236
			c16.6,0,29.5,12.9,29.5,29.5v236C460,496.8,447.1,509.7,430.5,509.7z"/>
		<path class="st1" d="M312.5,532.2L312.5,532.2c-93.9,0-170-76.1-170-170v0c0-93.9,76.1-170,170-170h0c93.9,0,170,76.1,170,170v0
			C482.5,456.1,406.4,532.2,312.5,532.2z"/>
		<path class="st2" d="M345.1,271.9h-53.5c-20.3,0-39.9,0-60.2,0c-5.5,60.2-11.1,119.8-17.2,180.1c25.8,0,51.6,0,76.8,0h53.5
			c16,0,32.6,0,48.6,0c5.5-60.2,11.1-119.8,17.2-180.1C388.7,271.9,366.6,271.9,345.1,271.9z"/>
		<path class="st3" d="M413.3,321.7c-3.1-3.1-6.1-4.3-9.8-4.3h-87.3c-3.7,0-7.4,1.2-9.8,4.3c-2.5,3.1-4.3,6.1-4.3,9.8v87.3
			c0,3.7,1.2,7.4,4.3,9.8c2.5,2.5,6.1,4.3,9.8,4.3h87.3c3.7,0,7.4-1.2,9.8-4.3c3.1-2.5,4.3-6.1,4.3-9.8v-87.3
			C417.6,327.8,416.4,324.7,413.3,321.7z M367.2,344.4l4.9-5.5l9.2,9.2l9.2-9.2l4.9,5.5l-9.2,9.2l9.2,9.2l-4.9,4.9l-9.2-9.2
			l-9.2,9.2l-4.9-4.9l9.2-9.2L367.2,344.4z M324.8,349.3h28.9v7.4h-28.9V349.3z M356.8,399.1h-13.5v13.5h-7.4v-13.5h-13.5v-7.4h13.5
			v-13.5h7.4v13.5h13.5V399.1z M396.7,407.1h-30.1v-7.4h30.1V407.1z M396.7,390.5h-30.1v-7.4h30.1V390.5z"/>
		<path class="st4" d="M335.9,412h7.4v-12.9h13.5v-7.4h-13.5v-13.5h-7.4v13.5h-13.5v7.4h13.5V412z M367.2,407.1h30.1v-7.4h-30.1
			V407.1z M367.2,390.5h30.1v-7.4h-30.1V390.5z M372.1,367.8l9.2-9.2l9.2,9.2l4.9-4.9l-9.2-9.2l9.2-9.2l-4.9-5.5l-9.2,9.2l-9.2-9.2
			l-4.9,5.5l9.2,9.2l-9.2,9.2L372.1,367.8z M324.8,356.7h28.9v-7.4h-28.9V356.7z M316.2,432.9c-3.7,0-7.4-1.2-9.8-4.3
			c-2.5-2.5-4.3-6.1-4.3-9.8v-87.3c0-3.7,1.2-7.4,4.3-9.8c2.5-3.1,6.1-4.3,9.8-4.3h87.3c3.7,0,7.4,1.2,9.8,4.3
			c3.1,3.1,4.3,6.1,4.3,9.8v87.3c0,3.7-1.2,7.4-4.3,9.8c-3.1,2.5-6.1,4.3-9.8,4.3L316.2,432.9L316.2,432.9z"/>
	</g>
</g>
<g id="Layer_2_1_">
	<path class="st2" d="M145.8,110.2h-16.5c-13.6,0-27.1,0-40.7,0c-3.8,40.7-7.7,81.4-11.5,122.2c17.4,0,34.8,0,52.2,0h16.5V110.2z"/>
	<path class="st2" d="M360.7,110.2h-13.2v122.2h13.2c11,0,22,0,33,0c3.8-40.7,7.7-81.4,11.5-122.2
		C390.4,110.2,375.5,110.2,360.7,110.2z"/>
	<rect x="145.8" y="110.2" class="st2" width="201.6" height="122.2"/>
	<g>
		<g>
			<g>
				<path class="st5" d="M194.2,182.6h7.4l-5.2,24.5h-4.8l3.5-16.6c0.1-0.5,0.3-1.1,0.5-2s0.3-1.5,0.4-2l-9,20.5h-5l-0.2-20.5
					c-0.1,0.5-0.2,1.1-0.4,2s-0.3,1.5-0.4,2l-3.5,16.6h-4.8l5.2-24.5h7.4l0.3,19.2L194.2,182.6z"/>
				<path class="st5" d="M200.7,210.5h0.6c0.5,0,0.9,0,1.3,0c0.4-0.1,0.8-0.2,1.1-0.4s0.7-0.6,1-1.2s0.5-1,0.5-1.1l-2.6-18.9h5.3
					l1.1,13.3l6.6-13.3h5l-10,17.8c-1.9,3.4-3.3,5.6-4.2,6.4c-0.9,0.8-2.3,1.2-4.4,1.2c-0.4,0-0.8,0-1,0c-0.3,0-0.6,0-1.1-0.1
					L200.7,210.5z"/>
				<path class="st5" d="M220,207l5.2-24.5h5.1l-2,9.3h9.6l2-9.3h5.1l-5.2,24.5h-5.1l2.3-10.9h-9.6l-2.3,10.9H220z"/>
				<path class="st5" d="M267.8,199.9c-0.7,1.4-1.6,2.6-2.7,3.5l2.3,2.6l-3.3,2.8l-2.4-2.8c-1,0.5-1.9,0.9-2.6,1.1
					c-1.2,0.4-2.5,0.5-4.1,0.5c-3.2,0-5.6-1-7.3-2.9c-2-2.3-2.6-5.7-1.6-10.1c0.9-4.5,2.9-7.9,6-10.1c2.5-1.9,5.3-2.8,8.5-2.8
					s5.6,1,7.3,3c2,2.3,2.6,5.5,1.7,9.6C269.3,196.6,268.7,198.4,267.8,199.9z M257.9,203.2c0.3-0.1,0.7-0.2,1.2-0.4l-2-2.4l3.2-2.8
					l2,2.4c0.6-0.8,1-1.5,1.2-2.1c0.4-0.9,0.8-1.9,1-3.1c0.6-2.7,0.5-4.9-0.3-6.4s-2.3-2.2-4.4-2.2c-2,0-3.8,0.7-5.3,2.2
					c-1.5,1.4-2.6,3.6-3.2,6.5c-0.7,3.4-0.4,5.8,1,7.2c0.9,0.9,2.2,1.4,3.7,1.4C256.7,203.4,257.3,203.3,257.9,203.2z"/>
				<path class="st5" d="M292.7,198.2h-5.2l-1.9,8.8h-5.1l5.2-24.5h10.7c2.5,0,4.3,0.6,5.5,1.9c1.2,1.3,1.5,3.2,1,5.9
					c-0.6,2.9-1.8,4.9-3.5,6.1C297.6,197.6,295.4,198.2,292.7,198.2z M294.7,186.8h-4.8l-1.5,7.2h4.8c1.2,0,2.2-0.3,3-0.9
					c0.8-0.6,1.3-1.5,1.6-2.8c0.3-1.3,0.1-2.2-0.4-2.7C296.8,187.1,295.9,186.8,294.7,186.8z"/>
				<path class="st5" d="M312.2,196c0.9-0.1,1.6-0.2,2-0.4c0.7-0.3,1.2-0.7,1.3-1.3c0.2-0.7,0-1.3-0.4-1.5c-0.5-0.3-1.2-0.4-2.2-0.4
					c-1.1,0-2,0.3-2.6,0.8c-0.4,0.4-0.7,1-1,1.7h-4.6c0.4-1.6,1.2-2.9,2.2-3.9c1.6-1.6,3.9-2.4,7-2.4c2,0,3.7,0.4,5,1.2
					c1.4,0.8,1.8,2.3,1.4,4.4l-1.8,8.3c-0.1,0.6-0.3,1.3-0.4,2.1c-0.1,0.6-0.1,1,0,1.3c0.1,0.2,0.3,0.4,0.6,0.5l-0.1,0.7h-5.1
					c-0.1-0.4-0.1-0.7-0.1-1s0-0.7,0.1-1.1c-0.8,0.7-1.7,1.3-2.6,1.8c-1.2,0.6-2.4,0.9-3.7,0.9c-1.6,0-2.9-0.5-3.8-1.4
					s-1.1-2.3-0.8-4c0.5-2.2,1.7-3.8,3.6-4.8c1.1-0.5,2.5-0.9,4.4-1.2L312.2,196z M314.6,198.2c-0.3,0.2-0.7,0.3-1,0.5
					s-0.8,0.2-1.3,0.3l-1.1,0.2c-1,0.2-1.8,0.4-2.3,0.6c-0.8,0.4-1.3,1.1-1.5,2c-0.2,0.8-0.1,1.4,0.3,1.8c0.4,0.4,0.9,0.5,1.5,0.5
					c1,0,2-0.3,3-0.9c1-0.6,1.7-1.7,2-3.3L314.6,198.2z"/>
				<path class="st5" d="M321.7,210.5h0.6c0.5,0,0.9,0,1.3,0c0.4-0.1,0.8-0.2,1.1-0.4c0.3-0.2,0.7-0.6,1-1.2s0.5-1,0.5-1.1
					l-2.6-18.9h5.3l1.1,13.3l6.6-13.3h5l-10,17.8c-1.9,3.4-3.3,5.6-4.2,6.4c-0.9,0.8-2.3,1.2-4.4,1.2c-0.4,0-0.8,0-1,0
					c-0.3,0-0.6,0-1.1-0.1L321.7,210.5z"/>
				<path class="st5" d="M353.8,195.4c0.1-0.7,0-1.3-0.3-1.8c-0.4-0.7-1.1-1.1-2.2-1.1c-1.6,0-2.9,0.8-3.8,2.4
					c-0.5,0.8-0.9,2-1.2,3.4c-0.3,1.3-0.3,2.4-0.2,3.2c0.2,1.5,1.1,2.3,2.7,2.3c1.1,0,2-0.3,2.5-0.9s1-1.4,1.3-2.3h4.8
					c-0.4,1.4-1.2,2.8-2.4,4.1c-1.9,2.1-4.3,3.1-7.3,3.1c-2.9,0-4.9-0.9-5.9-2.6s-1.2-4-0.6-6.7c0.7-3.1,1.9-5.5,3.8-7.3
					s4.2-2.6,6.8-2.6c2.3,0,4,0.5,5.2,1.5s1.7,2.8,1.4,5.4L353.8,195.4L353.8,195.4z"/>
				<path class="st5" d="M378.2,190.8c0.4,0.7,0.5,1.4,0.5,2.1c0,0.7-0.2,1.9-0.6,3.5l-2.3,10.6H371l2.3-11c0.2-1,0.2-1.8,0-2.4
					c-0.3-0.8-1-1.3-2.2-1.3s-2.3,0.4-3.1,1.3c-0.8,0.8-1.4,2-1.7,3.6l-2.1,9.8h-4.7l5.2-24.4h4.7l-1.8,8.6c0.9-1.1,1.9-1.8,2.8-2.2
					s2-0.6,3-0.6c1.1,0,2.1,0.2,2.9,0.6C377.2,189.4,377.8,190,378.2,190.8z"/>
				<path class="st5" d="M397.6,192c0.5,1.1,0.7,2.3,0.6,3.7c0,0.8-0.2,2-0.6,3.6h-12.4c-0.3,1.8,0,3.1,0.9,3.8
					c0.6,0.5,1.3,0.7,2.2,0.7c1,0,1.8-0.3,2.6-0.8c0.4-0.3,0.8-0.7,1.1-1.2h4.8c-0.4,1.1-1.1,2.2-2.4,3.3c-1.9,1.8-4.3,2.6-7.1,2.6
					c-2.3,0-4.2-0.7-5.6-2.2s-1.8-3.9-1.1-7.2c0.7-3.1,2-5.5,3.9-7.2s4.2-2.5,6.7-2.5c1.5,0,2.8,0.3,3.9,0.8
					C396.3,189.9,397.1,190.8,397.6,192z M386,196.2h7.4c0.2-1.3,0-2.2-0.5-2.8s-1.3-1-2.3-1c-1.1,0-2,0.3-2.8,1
					C387,194.1,386.4,195,386,196.2z"/>
				<path class="st5" d="M412.4,195.4c0.1-0.7,0-1.3-0.3-1.8c-0.4-0.7-1.1-1.1-2.2-1.1c-1.6,0-2.8,0.8-3.8,2.4
					c-0.5,0.8-0.9,2-1.2,3.4c-0.3,1.3-0.3,2.4-0.2,3.2c0.2,1.5,1.1,2.3,2.7,2.3c1.1,0,2-0.3,2.5-0.9c0.6-0.6,1-1.4,1.3-2.3h4.8
					c-0.4,1.4-1.2,2.8-2.4,4.1c-1.9,2.1-4.3,3.1-7.3,3.1s-4.9-0.9-5.9-2.6c-1-1.7-1.2-4-0.6-6.7c0.7-3.1,1.9-5.5,3.8-7.3
					c1.9-1.7,4.2-2.6,6.8-2.6c2.3,0,4,0.5,5.2,1.5s1.7,2.8,1.4,5.4L412.4,195.4L412.4,195.4z"/>
				<path class="st5" d="M423.2,182.6h4.6l-2.8,13.2l7.3-6.8h5.9l-7.8,6.9l4.2,11.1H429l-2.7-7.7l-2.4,2l-1.2,5.7H418L423.2,182.6z"
					/>
			</g>
		</g>
		<g>
			<g>
				<path class="st4" d="M194.2,182.6h7.4l-5.2,24.5h-4.8l3.5-16.6c0.1-0.5,0.3-1.1,0.5-2s0.3-1.5,0.4-2l-9,20.5h-5l-0.2-20.5
					c-0.1,0.5-0.2,1.1-0.4,2s-0.3,1.5-0.4,2l-3.5,16.6h-4.8l5.2-24.5h7.4l0.3,19.2L194.2,182.6z"/>
				<path class="st4" d="M200.7,210.5h0.6c0.5,0,0.9,0,1.3,0c0.4-0.1,0.8-0.2,1.1-0.4s0.7-0.6,1-1.2s0.5-1,0.5-1.1l-2.6-18.9h5.3
					l1.1,13.3l6.6-13.3h5l-10,17.8c-1.9,3.4-3.3,5.6-4.2,6.4c-0.9,0.8-2.3,1.2-4.4,1.2c-0.4,0-0.8,0-1,0c-0.3,0-0.6,0-1.1-0.1
					L200.7,210.5z"/>
				<path class="st4" d="M220,207l5.2-24.5h5.1l-2,9.3h9.6l2-9.3h5.1l-5.2,24.5h-5.1l2.3-10.9h-9.6l-2.3,10.9H220z"/>
				<path class="st4" d="M267.8,199.9c-0.7,1.4-1.6,2.6-2.7,3.5l2.3,2.6l-3.3,2.8l-2.4-2.8c-1,0.5-1.9,0.9-2.6,1.1
					c-1.2,0.4-2.5,0.5-4.1,0.5c-3.2,0-5.6-1-7.3-2.9c-2-2.3-2.6-5.7-1.6-10.1c0.9-4.5,2.9-7.9,6-10.1c2.5-1.9,5.3-2.8,8.5-2.8
					s5.6,1,7.3,3c2,2.3,2.6,5.5,1.7,9.6C269.3,196.6,268.7,198.4,267.8,199.9z M257.9,203.2c0.3-0.1,0.7-0.2,1.2-0.4l-2-2.4l3.2-2.8
					l2,2.4c0.6-0.8,1-1.5,1.2-2.1c0.4-0.9,0.8-1.9,1-3.1c0.6-2.7,0.5-4.9-0.3-6.4s-2.3-2.2-4.4-2.2c-2,0-3.8,0.7-5.3,2.2
					c-1.5,1.4-2.6,3.6-3.2,6.5c-0.7,3.4-0.4,5.8,1,7.2c0.9,0.9,2.2,1.4,3.7,1.4C256.7,203.4,257.3,203.3,257.9,203.2z"/>
				<path class="st4" d="M292.7,198.2h-5.2l-1.9,8.8h-5.1l5.2-24.5h10.7c2.5,0,4.3,0.6,5.5,1.9c1.2,1.3,1.5,3.2,1,5.9
					c-0.6,2.9-1.8,4.9-3.5,6.1C297.6,197.6,295.4,198.2,292.7,198.2z M294.7,186.8h-4.8l-1.5,7.2h4.8c1.2,0,2.2-0.3,3-0.9
					c0.8-0.6,1.3-1.5,1.6-2.8c0.3-1.3,0.1-2.2-0.4-2.7C296.8,187.1,295.9,186.8,294.7,186.8z"/>
				<path class="st4" d="M312.2,196c0.9-0.1,1.6-0.2,2-0.4c0.7-0.3,1.2-0.7,1.3-1.3c0.2-0.7,0-1.3-0.4-1.5c-0.5-0.3-1.2-0.4-2.2-0.4
					c-1.1,0-2,0.3-2.6,0.8c-0.4,0.4-0.7,1-1,1.7h-4.6c0.4-1.6,1.2-2.9,2.2-3.9c1.6-1.6,3.9-2.4,7-2.4c2,0,3.7,0.4,5,1.2
					c1.4,0.8,1.8,2.3,1.4,4.4l-1.8,8.3c-0.1,0.6-0.3,1.3-0.4,2.1c-0.1,0.6-0.1,1,0,1.3c0.1,0.2,0.3,0.4,0.6,0.5l-0.1,0.7h-5.1
					c-0.1-0.4-0.1-0.7-0.1-1s0-0.7,0.1-1.1c-0.8,0.7-1.7,1.3-2.6,1.8c-1.2,0.6-2.4,0.9-3.7,0.9c-1.6,0-2.9-0.5-3.8-1.4
					s-1.1-2.3-0.8-4c0.5-2.2,1.7-3.8,3.6-4.8c1.1-0.5,2.5-0.9,4.4-1.2L312.2,196z M314.6,198.2c-0.3,0.2-0.7,0.3-1,0.5
					s-0.8,0.2-1.3,0.3l-1.1,0.2c-1,0.2-1.8,0.4-2.3,0.6c-0.8,0.4-1.3,1.1-1.5,2c-0.2,0.8-0.1,1.4,0.3,1.8c0.4,0.4,0.9,0.5,1.5,0.5
					c1,0,2-0.3,3-0.9c1-0.6,1.7-1.7,2-3.3L314.6,198.2z"/>
				<path class="st4" d="M321.7,210.5h0.6c0.5,0,0.9,0,1.3,0c0.4-0.1,0.8-0.2,1.1-0.4c0.3-0.2,0.7-0.6,1-1.2s0.5-1,0.5-1.1
					l-2.6-18.9h5.3l1.1,13.3l6.6-13.3h5l-10,17.8c-1.9,3.4-3.3,5.6-4.2,6.4c-0.9,0.8-2.3,1.2-4.4,1.2c-0.4,0-0.8,0-1,0
					c-0.3,0-0.6,0-1.1-0.1L321.7,210.5z"/>
				<path class="st4" d="M353.8,195.4c0.1-0.7,0-1.3-0.3-1.8c-0.4-0.7-1.1-1.1-2.2-1.1c-1.6,0-2.9,0.8-3.8,2.4
					c-0.5,0.8-0.9,2-1.2,3.4c-0.3,1.3-0.3,2.4-0.2,3.2c0.2,1.5,1.1,2.3,2.7,2.3c1.1,0,2-0.3,2.5-0.9s1-1.4,1.3-2.3h4.8
					c-0.4,1.4-1.2,2.8-2.4,4.1c-1.9,2.1-4.3,3.1-7.3,3.1c-2.9,0-4.9-0.9-5.9-2.6s-1.2-4-0.6-6.7c0.7-3.1,1.9-5.5,3.8-7.3
					s4.2-2.6,6.8-2.6c2.3,0,4,0.5,5.2,1.5s1.7,2.8,1.4,5.4L353.8,195.4L353.8,195.4z"/>
				<path class="st4" d="M378.2,190.8c0.4,0.7,0.5,1.4,0.5,2.1c0,0.7-0.2,1.9-0.6,3.5l-2.3,10.6H371l2.3-11c0.2-1,0.2-1.8,0-2.4
					c-0.3-0.8-1-1.3-2.2-1.3s-2.3,0.4-3.1,1.3c-0.8,0.8-1.4,2-1.7,3.6l-2.1,9.8h-4.7l5.2-24.4h4.7l-1.8,8.6c0.9-1.1,1.9-1.8,2.8-2.2
					s2-0.6,3-0.6c1.1,0,2.1,0.2,2.9,0.6C377.2,189.4,377.8,190,378.2,190.8z"/>
				<path class="st4" d="M397.6,192c0.5,1.1,0.7,2.3,0.6,3.7c0,0.8-0.2,2-0.6,3.6h-12.4c-0.3,1.8,0,3.1,0.9,3.8
					c0.6,0.5,1.3,0.7,2.2,0.7c1,0,1.8-0.3,2.6-0.8c0.4-0.3,0.8-0.7,1.1-1.2h4.8c-0.4,1.1-1.1,2.2-2.4,3.3c-1.9,1.8-4.3,2.6-7.1,2.6
					c-2.3,0-4.2-0.7-5.6-2.2s-1.8-3.9-1.1-7.2c0.7-3.1,2-5.5,3.9-7.2s4.2-2.5,6.7-2.5c1.5,0,2.8,0.3,3.9,0.8
					C396.3,189.9,397.1,190.8,397.6,192z M386,196.2h7.4c0.2-1.3,0-2.2-0.5-2.8s-1.3-1-2.3-1c-1.1,0-2,0.3-2.8,1
					C387,194.1,386.4,195,386,196.2z"/>
				<path class="st4" d="M412.4,195.4c0.1-0.7,0-1.3-0.3-1.8c-0.4-0.7-1.1-1.1-2.2-1.1c-1.6,0-2.8,0.8-3.8,2.4
					c-0.5,0.8-0.9,2-1.2,3.4c-0.3,1.3-0.3,2.4-0.2,3.2c0.2,1.5,1.1,2.3,2.7,2.3c1.1,0,2-0.3,2.5-0.9c0.6-0.6,1-1.4,1.3-2.3h4.8
					c-0.4,1.4-1.2,2.8-2.4,4.1c-1.9,2.1-4.3,3.1-7.3,3.1s-4.9-0.9-5.9-2.6c-1-1.7-1.2-4-0.6-6.7c0.7-3.1,1.9-5.5,3.8-7.3
					c1.9-1.7,4.2-2.6,6.8-2.6c2.3,0,4,0.5,5.2,1.5s1.7,2.8,1.4,5.4L412.4,195.4L412.4,195.4z"/>
				<path class="st4" d="M423.2,182.6h4.6l-2.8,13.2l7.3-6.8h5.9l-7.8,6.9l4.2,11.1H429l-2.7-7.7l-2.4,2l-1.2,5.7H418L423.2,182.6z"
					/>
			</g>
		</g>
	</g>
	<path class="st4" d="M118.2,179.8h4v-7.5h7.5v-4h-7.5v-7.5h-4v7.5h-7.5v4h7.5V179.8z M135.7,176.9h17v-4h-17V176.9z M135.7,167.6
		h17v-4h-17V167.6z M138.7,154.6l5.3-5.2l5.2,5.2l2.9-2.9l-5.2-5.2l5.2-5.2l-2.9-3l-5.2,5.2l-5.3-5.2l-2.9,3l5.2,5.2l-5.2,5.2
		L138.7,154.6z M111.9,148.1h16.6V144h-16.6V148.1z M107,191.5c-2.2,0-4-0.8-5.5-2.3s-2.3-3.4-2.3-5.5v-49.6c0-2.2,0.8-4,2.3-5.6
		s3.4-2.4,5.5-2.4h49.6c2.2,0,4,0.8,5.6,2.4c1.6,1.6,2.4,3.4,2.4,5.6v49.6c0,2.2-0.8,4-2.4,5.5c-1.6,1.5-3.4,2.3-5.6,2.3L107,191.5
		L107,191.5z"/>
</g>
</svg>
