<?xml version="1.0" encoding="utf-8"?>
<!-- Generator: Adobe Illustrator 25.2.0, SVG Export Plug-In . SVG Version: 6.00 Build 0)  -->
<svg version="1.1" id="Layer_1" xmlns="http://www.w3.org/2000/svg" xmlns:xlink="http://www.w3.org/1999/xlink" x="0px" y="0px"
	 viewBox="0 0 369 122.2" style="enable-background:new 0 0 369 122.2;" xml:space="preserve">
<style type="text/css">
	.st0{fill:#00549B;}
	.st1{fill:#FFFFFF;}
	.st2{fill:#FFFFFF;stroke:#00549B;stroke-width:9.5775;stroke-linecap:round;stroke-linejoin:round;stroke-miterlimit:10;}
	.st3{display:none;fill:#FFFFFF;}
</style>
<g id="Layer_2_1_">
	<path class="st0" d="M282.6,0h-12.3h-0.9H68.7H52.2C38.6,0,25.1,0,11.5,0C7.7,40.7,3.8,81.4,0,122.2c17.4,0,34.8,0,52.2,0h16.5
		h200.7h0.9h12.3c11,0,22,0,33,0c3.8-40.7,7.7-81.4,11.5-122.2C312.3,0,297.4,0,282.6,0z"/>
	<path class="st1" d="M8.1,35.7h2v6.2H7.6C7.7,40.5,7.8,39,8,37.5c-1.1,11.7-2.2,23.3-3.3,35H12v6.1H4.1c0.1-1.4,0.3-2.8,0.4-4.3
		c-1,11.1-2.1,22.2-3.1,33.3H53c3.4,0,6.1-1.2,8.6-3.5c2.4-2.3,3.7-5,3.7-8.3V20.7c0-3.3-1.2-6.1-3.7-8.5S56.4,8.6,53,8.6H10.7
		C11,5.7,11.2,2.9,11.5,0C10.4,11.9,9.3,23.8,8.1,35.7z M21.3,31.6l4.4-4.5l8.1,7.9l7.9-7.9l4.4,4.5l-7.9,7.9l7.9,7.9l-4.4,4.4
		l-7.9-7.9l-8.1,7.9l-4.4-4.4l7.9-7.9L21.3,31.6z M21.1,65.4h26v6.1h-26C21.1,71.5,21.1,65.4,21.1,65.4z M21.1,79.5h26v6.1h-26
		C21.1,85.6,21.1,79.5,21.1,79.5z"/>
	<g>
		<g id="Paycheck">
			<path class="st2" d="M195.7,89.7h-5.7l-2,9.6h-5.6l5.7-26.9h11.8c2.8,0,4.7,0.6,6,2c1.3,1.4,1.6,3.5,1.1,6.4
				c-0.6,3.2-1.9,5.4-3.9,6.7C201,89.1,198.6,89.7,195.7,89.7z M197.8,77.3h-5.3l-1.6,7.9h5.3c1.3,0,2.5-0.3,3.3-1
				c0.9-0.6,1.4-1.6,1.7-3.1c0.3-1.4,0.1-2.5-0.4-3C200.2,77.6,199.2,77.3,197.8,77.3z"/>
			<path class="st2" d="M217.1,87.4c1-0.1,1.7-0.2,2.1-0.4c0.8-0.3,1.3-0.8,1.4-1.4c0.2-0.8,0-1.4-0.4-1.6c-0.5-0.3-1.3-0.4-2.5-0.4
				c-1.2,0-2.1,0.3-2.9,0.9c-0.4,0.4-0.8,1.1-1.1,1.8h-5c0.4-1.7,1.3-3.2,2.5-4.3c1.7-1.7,4.3-2.7,7.7-2.7c2.1,0,4.1,0.4,5.5,1.3
				c1.5,0.9,1.9,2.6,1.5,4.8l-1.9,9.1c-0.1,0.6-0.3,1.4-0.4,2.4c-0.1,0.6-0.1,1.1,0,1.4c0.1,0.2,0.3,0.4,0.6,0.5l-0.1,0.8h-5.6
				c-0.1-0.4-0.1-0.8-0.1-1.1c0-0.3,0-0.8,0.1-1.2c-0.9,0.8-1.8,1.4-2.9,1.9c-1.3,0.6-2.7,1-4.1,1c-1.7,0-3.2-0.5-4.2-1.5
				s-1.2-2.6-0.9-4.4c0.5-2.5,1.8-4.2,4-5.3c1.2-0.5,2.8-1,4.8-1.3L217.1,87.4z M219.7,89.7c-0.3,0.2-0.8,0.3-1.1,0.5
				c-0.3,0.2-0.9,0.2-1.4,0.3l-1.2,0.2c-1.1,0.2-1.9,0.4-2.6,0.6c-0.9,0.4-1.4,1.2-1.6,2.1c-0.2,0.9-0.1,1.5,0.3,1.9s1,0.5,1.6,0.5
				c1.1,0,2.1-0.3,3.3-1c1.1-0.6,1.8-1.8,2.1-3.6L219.7,89.7z"/>
			<path class="st2" d="M227.5,103.3h0.6c0.5,0,1,0,1.4,0c0.4-0.1,0.9-0.2,1.2-0.4c0.3-0.2,0.8-0.6,1.1-1.3c0.3-0.6,0.5-1.1,0.5-1.2
				l-2.9-20.8h5.8l1.2,14.6l7.3-14.6h5.5l-11,19.5c-2,3.8-3.6,6.1-4.6,7.1c-1,0.9-2.6,1.3-4.8,1.3c-0.4,0-0.9,0-1.1,0
				c-0.3,0-0.6,0-1.2-0.1L227.5,103.3z"/>
			<path class="st2" d="M262.8,86.7c0.1-0.8,0-1.4-0.3-1.9c-0.4-0.8-1.2-1.2-2.5-1.2c-1.7,0-3.2,0.9-4.2,2.7c-0.5,0.9-1,2.1-1.3,3.8
				c-0.3,1.4-0.3,2.7-0.2,3.5c0.2,1.6,1.2,2.6,3,2.6c1.2,0,2.1-0.3,2.8-1c0.5-0.6,1.1-1.5,1.4-2.6h5.3c-0.4,1.5-1.3,3.1-2.7,4.5
				c-2,2.4-4.7,3.4-8,3.4c-3.2,0-5.4-1-6.4-2.9c-1.1-1.8-1.3-4.4-0.6-7.4c0.8-3.4,2-6,4.2-8c2-1.9,4.6-2.9,7.5-2.9
				c2.6,0,4.4,0.5,5.7,1.6c1.3,1.1,1.8,3.1,1.5,5.9L262.8,86.7L262.8,86.7z"/>
			<path class="st2" d="M289.6,81.7c0.4,0.8,0.5,1.5,0.5,2.4c0,0.8-0.2,2-0.6,3.9L287,99.6h-5.2l2.6-12.1c0.2-1.1,0.2-1.9,0-2.7
				c-0.3-0.9-1.1-1.4-2.5-1.4c-1.3,0-2.6,0.4-3.4,1.4c-0.9,0.9-1.5,2.1-1.8,4l-2.4,10.7h-5.1l5.7-26.8h5.1l-1.9,9.4
				c1-1.2,2-1.9,3.1-2.5c1-0.5,2.1-0.6,3.3-0.6c1.2,0,2.4,0.2,3.2,0.6C288.5,80.1,289.2,80.7,289.6,81.7z"/>
			<path class="st2" d="M310.9,83c0.5,1.2,0.8,2.6,0.6,4.1c0,0.9-0.2,2.1-0.6,4h-13.6c-0.3,1.9,0,3.4,1,4.2c0.6,0.5,1.4,0.8,2.5,0.8
				c1.1,0,1.9-0.3,2.9-0.9c0.4-0.3,0.9-0.8,1.2-1.3h5.3c-0.4,1.2-1.2,2.5-2.7,3.6c-2,1.9-4.7,2.9-7.8,2.9c-2.6,0-4.6-0.8-6.1-2.5
				s-1.9-4.3-1.2-7.9c0.8-3.4,2.1-6,4.3-7.9c2-1.8,4.6-2.8,7.4-2.8c1.6,0,3.1,0.3,4.3,0.9C309.5,80.6,310.4,81.7,310.9,83z
				 M298.2,87.6h8.1c0.2-1.4,0-2.5-0.5-3.1c-0.5-0.6-1.4-1.1-2.6-1.1c-1.2,0-2.1,0.3-3.1,1.1C299.2,85.2,298.6,86.3,298.2,87.6z"/>
			<path class="st2" d="M327.2,86.7c0.1-0.8,0-1.4-0.3-1.9c-0.4-0.8-1.2-1.2-2.5-1.2c-1.7,0-3.1,0.9-4.2,2.7c-0.5,0.9-1,2.1-1.3,3.8
				c-0.3,1.4-0.3,2.7-0.2,3.5c0.2,1.6,1.2,2.6,3,2.6c1.2,0,2.1-0.3,2.8-1c0.6-0.6,1.1-1.5,1.4-2.6h5.3c-0.4,1.5-1.3,3.1-2.7,4.5
				c-2,2.4-4.7,3.4-8,3.4c-3.3,0-5.4-1-6.4-2.9c-1.1-1.8-1.3-4.4-0.6-7.4c0.8-3.4,2-6,4.2-8c2-1.8,4.6-2.9,7.5-2.9
				c2.6,0,4.4,0.5,5.7,1.6s1.8,3.1,1.5,5.9L327.2,86.7L327.2,86.7z"/>
			<path class="st2" d="M339,72.7h5L341,87.2l8-7.5h6.4l-8.6,7.6l4.6,12.2h-6.1l-3-8.5l-2.7,2.1l-1.3,6.2h-5.1L339,72.7z"/>
		</g>
		<g id="Paycheck_1_">
			<path class="st1" d="M195.7,89.7h-5.7l-2,9.6h-5.6l5.7-26.9h11.8c2.8,0,4.7,0.6,6,2c1.3,1.4,1.6,3.5,1.1,6.4
				c-0.6,3.2-1.9,5.4-3.9,6.7C201,89.1,198.6,89.7,195.7,89.7z M197.8,77.3h-5.3l-1.6,7.9h5.3c1.3,0,2.5-0.3,3.3-1
				c0.9-0.6,1.4-1.6,1.7-3.1c0.3-1.4,0.1-2.5-0.4-3C200.2,77.6,199.2,77.3,197.8,77.3z"/>
			<path class="st1" d="M217.1,87.4c1-0.1,1.7-0.2,2.1-0.4c0.8-0.3,1.3-0.8,1.4-1.4c0.2-0.8,0-1.4-0.4-1.6c-0.5-0.3-1.3-0.4-2.5-0.4
				c-1.2,0-2.1,0.3-2.9,0.9c-0.4,0.4-0.8,1.1-1.1,1.8h-5c0.4-1.7,1.3-3.2,2.5-4.3c1.7-1.7,4.3-2.7,7.7-2.7c2.1,0,4.1,0.4,5.5,1.3
				c1.5,0.9,1.9,2.6,1.5,4.8l-1.9,9.1c-0.1,0.6-0.3,1.4-0.4,2.4c-0.1,0.6-0.1,1.1,0,1.4c0.1,0.2,0.3,0.4,0.6,0.5l-0.1,0.8h-5.6
				c-0.1-0.4-0.1-0.8-0.1-1.1c0-0.3,0-0.8,0.1-1.2c-0.9,0.8-1.8,1.4-2.9,1.9c-1.3,0.6-2.7,1-4.1,1c-1.7,0-3.2-0.5-4.2-1.5
				s-1.2-2.6-0.9-4.4c0.5-2.5,1.8-4.2,4-5.3c1.2-0.5,2.8-1,4.8-1.3L217.1,87.4z M219.7,89.7c-0.3,0.2-0.8,0.3-1.1,0.5
				c-0.3,0.2-0.9,0.2-1.4,0.3l-1.2,0.2c-1.1,0.2-1.9,0.4-2.6,0.6c-0.9,0.4-1.4,1.2-1.6,2.1c-0.2,0.9-0.1,1.5,0.3,1.9s1,0.5,1.6,0.5
				c1.1,0,2.1-0.3,3.3-1c1.1-0.6,1.8-1.8,2.1-3.6L219.7,89.7z"/>
			<path class="st1" d="M227.5,103.3h0.6c0.5,0,1,0,1.4,0c0.4-0.1,0.9-0.2,1.2-0.4c0.3-0.2,0.8-0.6,1.1-1.3c0.3-0.6,0.5-1.1,0.5-1.2
				l-2.9-20.8h5.8l1.2,14.6l7.3-14.6h5.5l-11,19.5c-2,3.8-3.6,6.1-4.6,7.1c-1,0.9-2.6,1.3-4.8,1.3c-0.4,0-0.9,0-1.1,0
				c-0.3,0-0.6,0-1.2-0.1L227.5,103.3z"/>
			<path class="st1" d="M262.8,86.7c0.1-0.8,0-1.4-0.3-1.9c-0.4-0.8-1.2-1.2-2.5-1.2c-1.7,0-3.2,0.9-4.2,2.7c-0.5,0.9-1,2.1-1.3,3.8
				c-0.3,1.4-0.3,2.7-0.2,3.5c0.2,1.6,1.2,2.6,3,2.6c1.2,0,2.1-0.3,2.8-1c0.5-0.6,1.1-1.5,1.4-2.6h5.3c-0.4,1.5-1.3,3.1-2.7,4.5
				c-2,2.4-4.7,3.4-8,3.4c-3.2,0-5.4-1-6.4-2.9c-1.1-1.8-1.3-4.4-0.6-7.4c0.8-3.4,2-6,4.2-8c2-1.9,4.6-2.9,7.5-2.9
				c2.6,0,4.4,0.5,5.7,1.6c1.3,1.1,1.8,3.1,1.5,5.9L262.8,86.7L262.8,86.7z"/>
			<path class="st1" d="M289.6,81.7c0.4,0.8,0.5,1.5,0.5,2.4c0,0.8-0.2,2-0.6,3.9L287,99.6h-5.2l2.6-12.1c0.2-1.1,0.2-1.9,0-2.7
				c-0.3-0.9-1.1-1.4-2.5-1.4c-1.3,0-2.6,0.4-3.4,1.4c-0.9,0.9-1.5,2.1-1.8,4l-2.4,10.7h-5.1l5.7-26.8h5.1l-1.9,9.4
				c1-1.2,2-1.9,3.1-2.5c1-0.5,2.1-0.6,3.3-0.6c1.2,0,2.4,0.2,3.2,0.6C288.5,80.1,289.2,80.7,289.6,81.7z"/>
			<path class="st1" d="M310.9,83c0.5,1.2,0.8,2.6,0.6,4.1c0,0.9-0.2,2.1-0.6,4h-13.6c-0.3,1.9,0,3.4,1,4.2c0.6,0.5,1.4,0.8,2.5,0.8
				c1.1,0,1.9-0.3,2.9-0.9c0.4-0.3,0.9-0.8,1.2-1.3h5.3c-0.4,1.2-1.2,2.5-2.7,3.6c-2,1.9-4.7,2.9-7.8,2.9c-2.6,0-4.6-0.8-6.1-2.5
				s-1.9-4.3-1.2-7.9c0.8-3.4,2.1-6,4.3-7.9c2-1.8,4.6-2.8,7.4-2.8c1.6,0,3.1,0.3,4.3,0.9C309.5,80.6,310.4,81.7,310.9,83z
				 M298.2,87.6h8.1c0.2-1.4,0-2.5-0.5-3.1c-0.5-0.6-1.4-1.1-2.6-1.1c-1.2,0-2.1,0.3-3.1,1.1C299.2,85.2,298.6,86.3,298.2,87.6z"/>
			<path class="st1" d="M327.2,86.7c0.1-0.8,0-1.4-0.3-1.9c-0.4-0.8-1.2-1.2-2.5-1.2c-1.7,0-3.1,0.9-4.2,2.7c-0.5,0.9-1,2.1-1.3,3.8
				c-0.3,1.4-0.3,2.7-0.2,3.5c0.2,1.6,1.2,2.6,3,2.6c1.2,0,2.1-0.3,2.8-1c0.6-0.6,1.1-1.5,1.4-2.6h5.3c-0.4,1.5-1.3,3.1-2.7,4.5
				c-2,2.4-4.7,3.4-8,3.4c-3.3,0-5.4-1-6.4-2.9c-1.1-1.8-1.3-4.4-0.6-7.4c0.8-3.4,2-6,4.2-8c2-1.8,4.6-2.9,7.5-2.9
				c2.6,0,4.4,0.5,5.7,1.6s1.8,3.1,1.5,5.9L327.2,86.7L327.2,86.7z"/>
			<path class="st1" d="M339,72.7h5L341,87.2l8-7.5h6.4l-8.6,7.6l4.6,12.2h-6.1l-3-8.5l-2.7,2.1l-1.3,6.2h-5.1L339,72.7z"/>
		</g>
		<g id="MyHQ">
			<path class="st1" d="M134.9,27.3h10.2l-7.2,33.9h-6.7l4.9-23c0.1-0.6,0.4-1.5,0.6-2.7c0.3-1.3,0.4-2.1,0.5-2.7l-12.5,28.4H118
				l-0.3-28.4c-0.1,0.6-0.3,1.5-0.5,2.7c-0.3,1.3-0.4,2.1-0.5,2.7l-4.9,23h-6.7l7.2-33.9h10.2l0.4,26.6L134.9,27.3z"/>
			<path class="st1" d="M143.9,65.8h0.8c0.6,0,1.3,0,1.8,0c0.5-0.1,1.2-0.3,1.5-0.5c0.4-0.3,1-0.8,1.4-1.7s0.6-1.4,0.6-1.5
				l-3.6-26.2h7.3l1.5,18.4l9.2-18.4h7l-13.8,24.6c-2.6,4.8-4.5,7.7-5.8,8.9c-1.3,1.2-3.2,1.7-6.1,1.7c-0.5,0-1.2,0-1.4,0
				c-0.4,0-0.8,0-1.5-0.1L143.9,65.8z"/>
			<path class="st1" d="M170.6,61l7.2-33.9h7.1L182.2,40h13.3l2.7-12.9h7.1L198.1,61H191l3.2-15.1H181L177.7,61H170.6z"/>
			<path class="st1" d="M236.9,51.1c-1,1.9-2.2,3.6-3.7,4.9l3.2,3.6l-4.5,3.9l-3.4-3.9c-1.4,0.6-2.6,1.3-3.6,1.5
				c-1.7,0.5-3.5,0.6-5.7,0.6c-4.4,0-7.7-1.4-10.1-4c-2.7-3.2-3.6-7.9-2.2-13.9c1.3-6.2,4-11,8.3-13.9c3.5-2.6,7.3-3.9,11.7-3.9
				c4.4,0,7.7,1.4,10.1,4.1c2.7,3.2,3.6,7.6,2.3,13.3C239,46.6,238.1,49.1,236.9,51.1z M223.1,55.8c0.4-0.1,1-0.3,1.7-0.5l-2.7-3.4
				l4.4-3.9l2.7,3.4c0.8-1.2,1.4-2.1,1.7-3c0.5-1.3,1.2-2.6,1.4-4.3c0.8-3.7,0.6-6.8-0.4-8.9c-1.2-2.1-3.2-3.1-6.1-3.1
				c-2.7,0-5.3,1-7.3,3.1c-2.1,1.9-3.6,5-4.4,9c-1,4.8-0.5,8,1.4,9.9c1.3,1.3,3.1,1.9,5.2,1.9C221.4,56,222.3,55.9,223.1,55.8z"/>
		</g>
	</g>
	<path class="st3" d="M-5.6,90h6.1V78.6H12v-6.1H0.5V61.2h-6.1v11.4h-11.5v6.1h11.5C-5.6,78.7-5.6,90-5.6,90z M21.1,85.6h26v-6.1
		h-26C21.1,79.5,21.1,85.6,21.1,85.6z M21.1,71.5h26v-6.1h-26C21.1,65.4,21.1,71.5,21.1,71.5z M25.7,51.8l8.1-7.9l7.9,7.9l4.4-4.4
		l-7.9-7.9l7.9-7.9l-4.4-4.5L33.8,35l-8.1-7.9l-4.4,4.5l7.9,7.9l-7.9,7.9L25.7,51.8z M-15.2,41.9h25.4v-6.2h-25.4V41.9z
		 M-22.7,107.7c-3.4,0-6.1-1.2-8.4-3.5s-3.5-5.1-3.5-8.3V20.7c0-3.3,1.2-6.1,3.5-8.5s5.2-3.6,8.4-3.6H53c3.4,0,6.1,1.2,8.6,3.6
		c2.4,2.4,3.7,5.1,3.7,8.5v75.1c0,3.3-1.2,6.1-3.7,8.3c-2.4,2.3-5.2,3.5-8.6,3.5L-22.7,107.7L-22.7,107.7z"/>
</g>
</svg>
